<svg id="Layer_3" enable-background="new 0 0 64 64" height="512" viewBox="0 0 64 64" width="512" xmlns="http://www.w3.org/2000/svg"><g><path d="m44 62h-38v-15c0-4.418 3.582-8 8-8h22c4.418 0 8 3.582 8 8z" fill="#ebf7fe"/><path d="m36 39h-22c-.692 0-1.36.097-2 .262v22.738h26v-22.738c-.64-.165-1.308-.262-2-.262z" fill="#88929f"/><path d="m52 62h-8c-1.105 0-2-.895-2-2v-16h12v16c0 1.105-.895 2-2 2z" fill="#c1c8d1"/><path d="m44 62h8c1.105 0 2-.895 2-2v-12h-12v12c0 1.105.895 2 2 2z" fill="#f5b95b"/><path d="m25 34c6.075 0 11-4.925 11-11v-5h-8c-2.451 0-4.693-1.385-5.789-3.578l-1.211-2.422-1.211 2.422c-1.096 2.193-3.338 3.578-5.789 3.578v5c0 6.075 4.925 11 11 11z" fill="#fadaa5"/><path d="m39.645 9.872c-.405-2.433-1.951-4.525-4.157-5.628-2.951-1.476-6.206-2.244-9.507-2.244h-1.963c-3.3 0-6.555.768-9.507 2.244-2.206 1.103-3.751 3.195-4.157 5.628-.232 1.392-.078 2.82.446 4.13l3.2 7.998v-4c2.451 0 4.693-1.385 5.789-3.578l1.211-2.422 1.211 2.422c1.096 2.193 3.338 3.578 5.789 3.578h8v4l3.199-7.997c.524-1.31.678-2.739.446-4.131z" fill="#c18e5c"/><path d="m14 23v-1h-1.5c-1.381 0-2.5 1.119-2.5 2.5s1.119 2.5 2.5 2.5h2.261c-.485-1.241-.761-2.587-.761-4z" fill="#fadaa5"/><path d="m37.5 22h-1.5v1c0 1.413-.276 2.759-.761 4h2.261c1.381 0 2.5-1.119 2.5-2.5s-1.119-2.5-2.5-2.5z" fill="#fadaa5"/><g><path d="m25 31c-2.206 0-4-1.794-4-4h2c0 1.103.897 2 2 2s2-.897 2-2h2c0 2.206-1.794 4-4 4z" fill="#bba37c"/></g><path d="m25 40 8-3v6z" fill="#e47c6f"/><path d="m25 40-8-3v6z" fill="#e47c6f"/><g><path d="m19.082 42.219 5.918 15.781 5.918-15.781-5.918-2.219z" fill="#ebf7fe"/></g><g><path d="m29 33.239c-1.241.485-2.587.761-4 .761s-2.759-.276-4-.761v5.261l4 1.5 4-1.5z" fill="#fadaa5"/></g><g><path d="m24 48h2v2h-2z" fill="#88929f"/></g><g><path d="m24 44h2v2h-2z" fill="#88929f"/></g><path d="m56 58h-4c-1.105 0-2-.895-2-2 0-1.105.895-2 2-2h4" fill="#fadaa5"/><path d="m56 54h-4c-1.105 0-2-.895-2-2 0-1.105.895-2 2-2h2c1.105 0 2 .895 2 2v8c0 1.105-.895 2-2 2h-2c-1.105 0-2-.895-2-2 0-1.105.895-2 2-2h4" fill="#fadaa5"/><g fill="#f5b95b"><circle cx="49" cy="38" r="2"/><circle cx="56" cy="31" r="2"/></g></g></svg>